*******************************************************************************
                    Stripped (2012) WEBRip - RadioResearch
*******************************************************************************

-------------------------------------------------------------------------------
                              General Information
-------------------------------------------------------------------------------
Type.................: Movie



Video Format.........: AVI
Video Bitrate........: 2026
Resolution...........: 640 x 360
Color................: 0.327
FPS..................: 25.000
Source...............: WEB 16:9
Original Format......: NTSC
Genre................: Horror / Thriller / Comedy
IMDb Rating..........: 2.0
Movie Information....: http://www.imdb.com/title/tt1763288/

-------------------------------------------------------------------------------
                               Post Information
-------------------------------------------------------------------------------
Posted by............: RadioResearch
Posted on............: 5/14/2013

-------------------------------------------------------------------------------
                                 Release Notes
-------------------------------------------------------------------------------
SEEDBOX SUPPORTED!!

Four friends head to Vegas for a 21st birthday in hopes of finding adventure, 
debauchery and memories that will last them a lifetime. Cameron, the scandalous 
one of the group decides to record the whole trip, determined to not forget the 
fiasco . A girlfriend of theirs begs for a ride, convincing them she will 
disappear as soon as they arrive. When they get to Vegas the guys devise an 
amazing plan for the night. Things take a turn for the worst when they call 
strippers that have them travel to a remote location. Little do they know, the 
strippers work for an organ trafficker. The guys fight for their lives, but 
eventually get Stripped.

Jesus!  This was another one that was a sonofabitch to get the DRM out of!  It 
looks interesting and has only been rated by 25 users so far, so please go to 
IMDB and rate it after viewing.

Enjoy!

RadioResearch

General
Complete name                            : G:Stripped (2012) WEBRip - 
RadioResearchStripped (HD)-{RadioResearch}.avi
Format                                   : AVI
Format/Info                              : Audio Video Interleave
File size                                : 1.13 GiB
Duration                                 : 1h 19mn
Overall bit rate                         : 2 026 Kbps

Video
ID                                       : 0
Format                                   : mp43
Codec ID                                 : mp43
Duration                                 : 1h 19mn
Bit rate                                 : 1 885 Kbps
Width                                    : 640 pixels
Height                                   : 360 pixels
Display aspect ratio                     : 16:9
Frame rate                               : 25.000 fps
Bits/(Pixel*Frame)                       : 0.327
Stream size                              : 1.05 GiB (93%)

Audio
ID                                       : 1
Format                                   : MPEG Audio
Format version                           : Version 1
Format profile                           : Layer 3
Mode                                     : Joint stereo
Codec ID                                 : 55
Codec ID/Hint                            : MP3
Duration                                 : 1h 19mn
Bit rate mode                            : Constant
Bit rate                                 : 128 Kbps
Channel(s)                               : 2 channels
Sampling rate                            : 44.1 KHz
Compression mode                         : Lossy
Stream size                              : 73.0 MiB (6%)
Alignment                                : Aligned on interleaves
Interleave, duration                     : 26 ms (0.65 video frame)
Interleave, preload duration             : 522 ms
Writing library                          : LAME3.98.2

AVI FILE MD5 HASH  5f06c03aee4cf39399630d08ab5e4abb



-------------------------------------------------------------------------------
Generated with Cool NFO Creator - http://fly.to/coolbeans
-------------------------------------------------------------------------------
